<svg width="48" height="49" viewBox="0 0 48 49" fill="none" xmlns="http://www.w3.org/2000/svg">
<path d="M27.972 8.88086C27.849 7.78084 27.3249 6.76473 26.4999 6.0268C25.6749 5.28887 24.6069 4.88089 23.5 4.88086H16.5C15.3931 4.88089 14.3251 5.28887 13.5001 6.0268C12.6751 6.76473 12.151 7.78084 12.028 8.88086H8.5C7.30653 8.88086 6.16193 9.35497 5.31802 10.1989C4.47411 11.0428 4 12.1874 4 13.3809V40.3809C4 41.5743 4.47411 42.7189 5.31802 43.5628C6.16193 44.4068 7.30653 44.8809 8.5 44.8809H25.62C24.7626 43.9883 24.0366 42.9781 23.464 41.8809H8.5C8.10218 41.8809 7.72064 41.7228 7.43934 41.4415C7.15804 41.1602 7 40.7787 7 40.3809V13.3809C7 12.983 7.15804 12.6015 7.43934 12.3202C7.72064 12.0389 8.10218 11.8809 8.5 11.8809H12.758C13.566 13.0869 14.94 13.8809 16.5 13.8809H23.5C25.06 13.8809 26.434 13.0869 27.242 11.8809H31.5C31.8978 11.8809 32.2794 12.0389 32.5607 12.3202C32.842 12.6015 33 12.983 33 13.3809V23.0329C33.9923 22.8801 34.9989 22.8418 36 22.9189V13.3809C36 12.1874 35.5259 11.0428 34.682 10.1989C33.8381 9.35497 32.6935 8.88086 31.5 8.88086H27.972ZM27.99 9.07286L28 9.38086C28 9.27686 27.996 9.17486 27.99 9.07286ZM16.5 7.88086H23.5C23.8978 7.88086 24.2794 8.03889 24.5607 8.3202C24.842 8.6015 25 8.98303 25 9.38086C25 9.77868 24.842 10.1602 24.5607 10.4415C24.2794 10.7228 23.8978 10.8809 23.5 10.8809H16.5C16.1022 10.8809 15.7206 10.7228 15.4393 10.4415C15.158 10.1602 15 9.77868 15 9.38086C15 8.98303 15.158 8.6015 15.4393 8.3202C15.7206 8.03889 16.1022 7.88086 16.5 7.88086ZM23.914 29.0889C24.9884 27.3403 26.4594 25.8692 28.208 24.7949L30.06 22.9409C30.2074 22.8035 30.3256 22.6379 30.4076 22.4539C30.4895 22.2699 30.5336 22.0713 30.5372 21.8699C30.5407 21.6685 30.5037 21.4684 30.4282 21.2817C30.3528 21.0949 30.2405 20.9252 30.0981 20.7828C29.9556 20.6403 29.786 20.5281 29.5992 20.4526C29.4124 20.3772 29.2124 20.3401 29.011 20.3437C28.8095 20.3472 28.6109 20.3913 28.4269 20.4733C28.2429 20.5553 28.0773 20.6735 27.94 20.8209L18 30.7609L14.06 26.8209C13.7757 26.5559 13.3996 26.4117 13.011 26.4185C12.6224 26.4254 12.2516 26.5828 11.9768 26.8576C11.7019 27.1324 11.5445 27.5032 11.5377 27.8918C11.5308 28.2804 11.675 28.6565 11.94 28.9409L16.94 33.9409C17.2213 34.2218 17.6025 34.3795 18 34.3795C18.3975 34.3795 18.7787 34.2218 19.06 33.9409L23.914 29.0889ZM46 35.8809C46 32.9635 44.8411 30.1656 42.7782 28.1027C40.7153 26.0398 37.9174 24.8809 35 24.8809C32.0826 24.8809 29.2847 26.0398 27.2218 28.1027C25.1589 30.1656 24 32.9635 24 35.8809C24 38.7982 25.1589 41.5961 27.2218 43.659C29.2847 45.7219 32.0826 46.8809 35 46.8809C37.9174 46.8809 40.7153 45.7219 42.7782 43.659C44.8411 41.5961 46 38.7982 46 35.8809ZM36 36.8809L36.002 41.8869C36.002 42.1521 35.8966 42.4064 35.7091 42.594C35.5216 42.7815 35.2672 42.8869 35.002 42.8869C34.7368 42.8869 34.4824 42.7815 34.2949 42.594C34.1074 42.4064 34.002 42.1521 34.002 41.8869V36.8809H28.992C28.7268 36.8809 28.4724 36.7755 28.2849 36.588C28.0974 36.4004 27.992 36.1461 27.992 35.8809C27.992 35.6156 28.0974 35.3613 28.2849 35.1738C28.4724 34.9862 28.7268 34.8809 28.992 34.8809H34V29.8809C34 29.6156 34.1054 29.3613 34.2929 29.1738C34.4804 28.9862 34.7348 28.8809 35 28.8809C35.2652 28.8809 35.5196 28.9862 35.7071 29.1738C35.8946 29.3613 36 29.6156 36 29.8809V34.8809H40.994C41.2592 34.8809 41.5136 34.9862 41.7011 35.1738C41.8886 35.3613 41.994 35.6156 41.994 35.8809C41.994 36.1461 41.8886 36.4004 41.7011 36.588C41.5136 36.7755 41.2592 36.8809 40.994 36.8809H36Z" fill="#222222"/>
</svg>
