<svg width="24" height="24" viewBox="0 0 24 24" fill="none" xmlns="http://www.w3.org/2000/svg">
<path d="M5.12274 1.4251C4.42805 1.42477 3.69708 1.5256 2.92796 1.75003C2.92568 1.7508 2.92342 1.75158 2.92116 1.75238C2.91334 1.75486 2.90558 1.75757 2.89791 1.76049C2.89176 1.76273 2.88567 1.7651 2.87963 1.76761C2.87219 1.77082 2.86485 1.77422 2.8576 1.77783C2.85153 1.78071 2.84553 1.78373 2.8396 1.78688C2.83224 1.79094 2.82501 1.7952 2.81789 1.79967C2.81248 1.803 2.80713 1.80643 2.80186 1.80999C2.79492 1.81479 2.78813 1.81979 2.78147 1.82499C2.77632 1.82888 2.77126 1.83288 2.76628 1.83699C2.75993 1.84239 2.75372 1.84797 2.74767 1.85372C2.74294 1.85815 2.73829 1.86268 2.73375 1.86731C2.72779 1.87347 2.72201 1.8798 2.71641 1.8863C2.71246 1.8908 2.7086 1.89538 2.70483 1.90003C2.69927 1.9071 2.69392 1.91434 2.6888 1.92174C2.68534 1.92659 2.68198 1.93151 2.67872 1.9365C2.6741 1.94375 2.66969 1.95113 2.6655 1.95863C2.66237 1.96409 2.65935 1.96963 2.65646 1.97522C2.65259 1.98288 2.64895 1.99065 2.64553 1.99852C2.64298 2.0042 2.64054 2.00994 2.63822 2.01572C2.63521 2.02364 2.63243 2.03164 2.62988 2.03972C2.62784 2.04571 2.62594 2.05174 2.62416 2.05781C2.6211 2.06846 2.61844 2.07922 2.61619 2.09006L1.56657 7.33828C1.54647 7.43889 1.56174 7.54336 1.60978 7.63401C1.65783 7.72467 1.7357 7.79595 1.83024 7.83581L5.67507 9.45666L7.15725 17.0566L1.69472 18.2432C1.59621 18.2644 1.50779 18.3184 1.44394 18.3963C1.38008 18.4743 1.34455 18.5716 1.34316 18.6724L1.29338 22.2569C1.2924 22.3274 1.30819 22.3972 1.33946 22.4605C1.37073 22.5237 1.41658 22.5786 1.47322 22.6207C1.52987 22.6627 1.5957 22.6907 1.66528 22.7023C1.73487 22.7139 1.80622 22.7089 1.87346 22.6875L8.73914 20.4931L9.86991 20.2739C9.87821 20.274 9.88646 20.2746 9.89475 20.2746C10.3614 20.2746 10.8009 20.0523 11.1079 19.69C11.4146 19.3279 11.575 18.8561 11.5746 18.37V18.3688C11.5748 18.0606 11.5103 17.7577 11.385 17.4849L10.2003 11.3645L16.0959 13.8498C16.0984 13.8507 16.1008 13.8516 16.1032 13.8525C16.1116 13.8558 16.1201 13.8589 16.1288 13.8617C16.1342 13.8636 16.1397 13.8653 16.1452 13.8669C16.1536 13.8693 16.1621 13.8715 16.1706 13.8734C16.1771 13.8749 16.1836 13.8762 16.1901 13.8774C16.1976 13.8787 16.2052 13.8799 16.2128 13.8808C16.2203 13.8818 16.2278 13.8826 16.2353 13.8832C16.2421 13.8836 16.2488 13.8839 16.2555 13.8841C16.2639 13.8844 16.2724 13.8845 16.2808 13.8843C16.2865 13.8842 16.2922 13.8841 16.2978 13.8838L20.2075 13.6363C20.2868 13.6311 20.3634 13.6046 20.4291 13.5598C20.4948 13.515 20.5472 13.4534 20.5811 13.3814L22.9493 8.36794L22.9497 8.36728C22.9497 8.36725 22.9497 8.36722 22.9497 8.36719C22.95 8.36646 22.9503 8.36572 22.9506 8.36499C22.9781 8.30814 22.9932 8.24609 22.9949 8.18296C22.9966 8.11982 22.9848 8.05706 22.9604 7.99882C22.936 7.94058 22.8994 7.8882 22.8532 7.84517C22.807 7.80213 22.7522 7.76941 22.6923 7.74919C22.3395 7.55533 21.9616 7.41103 21.5694 7.32038L7.1378 1.71975C7.12546 1.71501 7.11292 1.71082 7.10021 1.70719C6.47597 1.52705 5.81747 1.42547 5.12274 1.4251ZM3.88772 2.06836C3.947 2.06799 4.00576 2.07947 4.06055 2.10211L17.6895 7.56446C17.7869 7.60344 17.8674 7.67554 17.9169 7.76806C17.9663 7.86058 17.9816 7.96758 17.9599 8.07024C17.9469 8.09206 17.9359 8.11496 17.9268 8.13867L17.8876 8.23571C17.8298 8.31742 17.7461 8.37728 17.6501 8.40565C17.5541 8.43402 17.4513 8.42924 17.3584 8.39208L3.72952 2.92828C3.63324 2.89056 3.55309 2.82051 3.50281 2.73015C3.45254 2.63979 3.43528 2.53475 3.454 2.43306C3.47271 2.33136 3.52624 2.23935 3.60538 2.1728C3.68453 2.10626 3.78432 2.06933 3.88772 2.06836ZM20.6365 8.08556C20.8428 8.08735 21.0467 8.10938 21.2491 8.15138L21.94 8.4195L20.8305 10.7686C20.8733 10.5784 20.8951 10.3898 20.8931 10.2129C20.8884 9.80358 20.7553 9.46524 20.5253 9.29588C20.2954 9.12652 19.9775 9.13275 19.664 9.3076C19.5867 9.35072 19.5091 9.4043 19.434 9.4658C19.4628 9.42727 19.4898 9.38517 19.5131 9.33985C19.5795 9.21061 19.6185 9.06085 19.6172 8.92828C19.6157 8.79539 19.5729 8.68252 19.497 8.625C19.4602 8.59655 19.4147 8.58157 19.3681 8.58253C19.3208 8.58328 19.2696 8.5981 19.2202 8.62646C19.1214 8.68327 19.029 8.79146 18.9624 8.92092C18.896 9.05049 18.8569 9.19974 18.8585 9.33258C18.8599 9.46538 18.9028 9.5783 18.9786 9.63586C19.0544 9.69328 19.1566 9.68963 19.2554 9.63286C19.0953 9.79983 18.9486 10.0032 18.8292 10.2291C18.6132 10.6377 18.4905 11.1103 18.4952 11.5196C18.4999 11.9289 18.6359 12.2686 18.8658 12.438C19.0957 12.6075 19.4107 12.5998 19.7241 12.4249C19.92 12.3156 20.1127 12.1428 20.2824 11.9289L19.8882 12.7633L16.9468 12.9508L18.693 8.61999C19.379 8.25689 20.0183 8.08031 20.6366 8.08561L20.6365 8.08556ZM6.66413 9.87361L7.41478 10.1901L8.80847 16.7318C8.66658 16.6882 8.519 16.6659 8.37057 16.6657C8.24288 16.6657 8.11744 16.6828 7.99613 16.7143L6.66413 9.87361ZM8.41505 10.6118L9.21272 10.9481L10.2908 16.5182C10.1619 16.4825 10.0287 16.4643 9.89489 16.464C9.81788 16.464 9.7418 16.4706 9.66685 16.4823L8.4151 10.6117L8.41505 10.6118ZM9.89485 17.3578C10.0759 17.3578 10.2819 17.4505 10.4326 17.6284C10.5833 17.8063 10.6873 18.092 10.6868 18.3688C10.6868 18.3692 10.6868 18.3696 10.6868 18.37C10.6873 18.6468 10.5833 18.9325 10.4326 19.1104C10.3651 19.1904 10.2825 19.2564 10.1895 19.3045L9.9015 19.3603C10.0002 19.1131 10.0508 18.8446 10.0505 18.5715V18.5704C10.0507 18.3949 10.0296 18.2201 9.98757 18.0497C9.98875 18.0144 9.98571 17.979 9.97852 17.9444L9.85402 17.3604C9.86761 17.3594 9.88139 17.3578 9.89485 17.3578ZM8.37057 17.5594C8.55169 17.5594 8.75775 17.6521 8.90846 17.83C9.05911 18.0079 9.16299 18.2936 9.16261 18.5704C9.16261 18.5708 9.16261 18.5712 9.16261 18.5715C9.16299 18.8483 9.05902 19.134 8.90841 19.3119C8.75771 19.4898 8.55169 19.5826 8.37052 19.5826C8.18944 19.5826 7.9846 19.4898 7.83394 19.3119C7.68328 19.1341 7.5781 18.8483 7.57847 18.5715C7.57847 18.5712 7.57847 18.5708 7.57847 18.5704C7.5781 18.2936 7.68328 18.0079 7.83394 17.83C7.9846 17.6521 8.18944 17.5594 8.37052 17.5594H8.37057ZM6.75357 18.0558C6.71248 18.2242 6.69183 18.397 6.69207 18.5704V18.5715C6.6916 19.0576 6.85191 19.5295 7.15861 19.8915C7.19789 19.938 7.23938 19.982 7.28274 20.0236L2.19282 21.6504L2.22947 19.0385L6.75357 18.0557V18.0558Z" fill="#0043C4"/>
</svg>
